<svg width="20" height="20" viewBox="0 0 20 20" fill="none" xmlns="http://www.w3.org/2000/svg">
<path d="M10 0C15.523 0 20 4.477 20 10C20 15.523 15.523 20 10 20C4.477 20 0 15.523 0 10C0 4.477 4.477 0 10 0ZM10 2C7.87827 2 5.84344 2.84285 4.34315 4.34315C2.84285 5.84344 2 7.87827 2 10C2 12.1217 2.84285 14.1566 4.34315 15.6569C5.84344 17.1571 7.87827 18 10 18C12.1217 18 14.1566 17.1571 15.6569 15.6569C17.1571 14.1566 18 12.1217 18 10C18 7.87827 17.1571 5.84344 15.6569 4.34315C14.1566 2.84285 12.1217 2 10 2ZM10 3C11.018 3 11.985 3.217 12.858 3.608L11.295 5.17C10.2316 4.88434 9.10356 4.95772 8.0861 5.37875C7.06863 5.79978 6.2186 6.54491 5.66796 7.49848C5.11731 8.45204 4.89685 9.56072 5.04079 10.6524C5.18473 11.7441 5.68501 12.7577 6.464 13.536L5.05 14.95L4.894 14.789C3.95983 13.7931 3.33732 12.5457 3.10315 11.2005C2.86897 9.85526 3.03335 8.47091 3.57604 7.21793C4.11873 5.96494 5.01603 4.89803 6.15744 4.14858C7.29885 3.39914 8.63454 2.99989 10 3ZM16.392 7.143C16.782 8.015 17 8.983 17 10C17.001 10.9194 16.8205 11.83 16.4687 12.6795C16.1169 13.5289 15.6008 14.3005 14.95 14.95L13.536 13.536C14.1575 12.9157 14.6044 12.1424 14.8316 11.2942C15.0588 10.446 15.0583 9.55291 14.83 8.705L16.392 7.143ZM14.242 4.343L15.657 5.757L11.933 9.483C12.0119 9.77935 12.0216 10.0899 11.9615 10.3906C11.9014 10.6913 11.773 10.9742 11.5862 11.2174C11.3994 11.4606 11.1592 11.6577 10.8842 11.7934C10.6092 11.9291 10.3067 11.9998 10 12C9.71565 11.9995 9.43469 11.9383 9.17584 11.8206C8.917 11.7029 8.68622 11.5314 8.49892 11.3175C8.31161 11.1035 8.17207 10.8521 8.08962 10.58C8.00716 10.3078 7.98368 10.0213 8.02074 9.73934C8.0578 9.45742 8.15455 9.18664 8.30453 8.94507C8.45451 8.70349 8.65428 8.49668 8.89052 8.33842C9.12675 8.18015 9.39402 8.07408 9.67449 8.02728C9.95495 7.98048 10.2422 7.99402 10.517 8.067L14.243 4.343H14.242Z" fill="#455454"/>
</svg>